<svg width="29" height="26" viewBox="0 0 29 26" fill="none" xmlns="http://www.w3.org/2000/svg">
<path d="M1.68438 5.34C1.12188 5.34 0.684376 4.9025 0.684376 4.34V1.84C0.684376 1.34 1.12188 0.839996 1.68438 0.839996H27.6844C28.1844 0.839996 28.6844 1.34 28.6844 1.84V4.34C28.6844 4.9025 28.1844 5.34 27.6844 5.34H1.68438ZM1.68438 15.34C1.12188 15.34 0.684376 14.9025 0.684376 14.34V11.84C0.684376 11.34 1.12188 10.84 1.68438 10.84H27.6844C28.1844 10.84 28.6844 11.34 28.6844 11.84V14.34C28.6844 14.9025 28.1844 15.34 27.6844 15.34H1.68438ZM1.68438 25.34C1.12188 25.34 0.684376 24.9025 0.684376 24.34V21.84C0.684376 21.34 1.12188 20.84 1.68438 20.84H27.6844C28.1844 20.84 28.6844 21.34 28.6844 21.84V24.34C28.6844 24.9025 28.1844 25.34 27.6844 25.34H1.68438Z" fill="black"/>
</svg>
