<svg width="101" height="35" viewBox="0 0 101 35" fill="none" xmlns="http://www.w3.org/2000/svg">
<g id="logo_berlin_m_srgb.svg" clip-path="url(#clip0_258_180)">
<path id="Vector" d="M100.495 0.839996H0.505005V34.17H100.495V0.839996Z" fill="white"/>
<path id="Vector_2" d="M0.505005 0.839996V34.17L100.495 34.17V0.839996H0.505005ZM1.21049 33.4645V1.54548H67.165V33.4645H1.21049ZM99.7895 33.4645H67.8705V1.54548H99.7895V33.4645Z" fill="black"/>
<path id="Vector_3" d="M57.6017 12.1406V19.4889C57.6017 19.5842 57.5381 19.6159 57.4905 19.5206L53.3007 12.0769C53.253 11.9976 53.1578 11.95 53.0625 11.95H51.2691C51.1579 11.95 51.0786 12.0293 51.0786 12.1406V22.8694C51.0786 22.9804 51.1579 23.06 51.2691 23.06H52.8243C52.9356 23.06 53.0148 22.9804 53.0148 22.8694V15.5371C53.0148 15.4418 53.0785 15.4101 53.1261 15.5051L57.3159 22.9327C57.3635 23.0124 57.4588 23.06 57.5541 23.06H59.3474C59.4587 23.06 59.538 22.9804 59.538 22.8694V12.1406C59.538 12.0293 59.4587 11.95 59.3474 11.95H57.792C57.681 11.95 57.6017 12.0293 57.6017 12.1406ZM46.3881 23.06H47.9596C48.0705 23.06 48.1498 22.9804 48.1498 22.8694V12.1406C48.1498 12.0293 48.0705 11.95 47.9596 11.95H46.3881C46.2772 11.95 46.1979 12.0293 46.1979 12.1406V22.8694C46.1979 22.9804 46.2772 23.06 46.3881 23.06ZM40.1224 21.1237V12.1406C40.1224 12.0293 40.043 11.95 39.9321 11.95H38.3606C38.2497 11.95 38.1704 12.0293 38.1704 12.1406V22.8694C38.1704 22.9804 38.2497 23.06 38.3606 23.06H43.7727C43.884 23.06 43.9633 22.9804 43.9633 22.8694V21.4092C43.9633 21.2983 43.884 21.2187 43.7727 21.2187H40.2176C40.1543 21.2187 40.1224 21.1713 40.1224 21.1237ZM29.8571 13.791H31.3016C32.5869 13.791 33.6187 14.4736 33.6187 15.8862C33.6187 17.2988 32.5869 17.9811 31.2856 17.9811H29.8571C29.7938 17.9811 29.7621 17.9334 29.7621 17.8858V13.8863C29.7621 13.823 29.7938 13.791 29.8571 13.791ZM33.5394 23.06H35.539C35.6979 23.06 35.7452 22.9487 35.6503 22.8218L33.2696 19.5999C33.2376 19.5522 33.2376 19.4889 33.3012 19.4573C34.7138 18.8859 35.6503 17.6319 35.6503 15.8862C35.6503 13.4102 33.7773 11.95 31.3966 11.95H28.0004C27.8891 11.95 27.8098 12.0293 27.8098 12.1406V22.8694C27.8098 22.9804 27.8891 23.06 28.0004 23.06H29.5716C29.6825 23.06 29.7621 22.9804 29.7621 22.8694V19.9174C29.7621 19.8541 29.8094 19.8221 29.8571 19.8221H31.0634C31.1111 19.8221 31.1587 19.8541 31.1904 19.8857L33.3172 22.9327C33.3648 23.0124 33.4441 23.06 33.5394 23.06ZM24.9246 13.6008V12.1406C24.9246 12.0293 24.8453 11.95 24.734 11.95H18.9572C18.8459 11.95 18.7666 12.0293 18.7666 12.1406V22.8694C18.7666 22.9804 18.8459 23.06 18.9572 23.06H24.734C24.8453 23.06 24.9246 22.9804 24.9246 22.8694V21.4092C24.9246 21.2983 24.8453 21.2187 24.734 21.2187H20.7982C20.7345 21.2187 20.7029 21.1713 20.7029 21.1237V18.4572C20.7029 18.3938 20.7505 18.3619 20.7982 18.3619H24.734C24.8453 18.3619 24.9246 18.2826 24.9246 18.1716V16.7274C24.9246 16.6161 24.8453 16.5369 24.734 16.5369H20.7982C20.7345 16.5369 20.7029 16.5052 20.7029 16.4416V13.8863C20.7029 13.823 20.7505 13.791 20.7982 13.791H24.734C24.8453 13.791 24.9246 13.7117 24.9246 13.6008ZM12.5512 21.2187H10.8688C10.8055 21.2187 10.7738 21.1713 10.7738 21.1237V18.4572C10.7738 18.3938 10.8055 18.3619 10.8688 18.3619H12.5512C13.583 18.3619 14.1543 18.9492 14.1543 19.7904C14.1543 20.6473 13.583 21.2187 12.5512 21.2187ZM12.3926 13.791C13.3924 13.791 13.9478 14.3307 13.9478 15.1559C13.9478 15.9815 13.3924 16.5369 12.3926 16.5369H10.8688C10.8055 16.5369 10.7738 16.5052 10.7738 16.4416V13.8863C10.7738 13.823 10.8055 13.791 10.8688 13.791H12.3926ZM14.7097 17.2828C15.5033 16.775 15.9794 15.9815 15.9794 14.9497C15.9794 13.2516 14.805 11.95 12.6465 11.95H9.02777C8.91683 11.95 8.83752 12.0293 8.83752 12.1406V22.8694C8.83752 22.9804 8.91683 23.06 9.02777 23.06H12.7894C15.0112 23.06 16.1856 21.7107 16.1856 19.9333C16.1856 18.7746 15.6302 17.9018 14.7097 17.4097C14.6461 17.3621 14.6461 17.3144 14.7097 17.2828Z" fill="#E40523"/>
<path id="Vector_4" fill-rule="evenodd" clip-rule="evenodd" d="M88.45 27.1455C88.4487 27.1589 88.4467 27.1723 88.4441 27.1854C88.4403 27.2039 88.4355 27.2221 88.4297 27.2396C88.3721 27.4093 88.2115 27.5337 88.0195 27.5337H85.2271C85.2167 27.2965 85.3396 26.7854 85.7857 26.5368C86.0674 26.3797 86.5419 26.2581 86.9088 26.2348C84.9939 25.0811 83.8612 23.3991 83.8597 23.3968C83.8594 23.3968 83.1736 24.1024 82.7861 24.8861C82.3069 25.8562 82.2386 26.4179 82.1526 26.9588C82.1397 27.042 82.1142 27.1179 82.0975 27.19C82.0972 27.1908 82.0972 27.1915 82.097 27.1923C82.0919 27.2143 82.0854 27.2355 82.0775 27.256C82.077 27.2573 82.0765 27.2583 82.076 27.2595C82.074 27.2649 82.0717 27.2699 82.0692 27.2752C82.0659 27.2825 82.0623 27.2901 82.0586 27.2972C82.055 27.3038 82.0512 27.3101 82.0474 27.3164C82.0474 27.3167 82.0472 27.3172 82.0467 27.3174C82.0196 27.3635 81.9847 27.4037 81.9435 27.4363C81.942 27.4373 81.9407 27.4386 81.9392 27.4396C81.8836 27.4833 81.8173 27.5132 81.7457 27.5258H81.744C81.7318 27.5271 81.7192 27.5274 81.7068 27.5274H81.6681L81.5176 27.5271L78.822 27.521C78.8243 27.2929 78.8997 26.8362 79.2674 26.5798C79.6538 26.3104 80.1191 26.2389 80.6011 26.2123C80.347 25.2164 80.2923 24.3692 80.4598 23.4345C80.7415 21.8623 81.5991 20.7156 82.2217 20.1158C82.2217 20.1158 81.8886 19.0139 81.8052 17.6885L78.3532 18.3867C78.1994 18.4184 78.0396 18.3923 77.904 18.3134L77.0303 17.7945C76.9066 17.7097 76.3454 17.3774 76.3454 17.3774C76.2387 17.3286 76.1998 17.1931 76.2966 17.0962C76.2966 17.0962 76.3947 17.0026 76.397 17.0006C76.6537 16.7849 77.0917 16.6041 77.6734 16.8641C77.6749 16.8643 77.8613 16.9212 77.992 16.9609C78.1035 16.9948 78.2239 16.9822 78.3263 16.9265C78.3263 16.9265 78.3269 16.926 78.3271 16.926L81.882 15.1474C81.882 15.1474 78.5153 12.596 78.5079 12.5899C78.428 12.5231 78.3668 12.4364 78.3314 12.338C78.3314 12.338 77.9758 11.5404 77.9511 11.5035L77.6688 10.984C77.573 10.789 77.575 10.633 77.5978 10.571C77.6185 10.5139 77.6708 10.4838 77.7728 10.4858C77.7728 10.4858 77.9781 10.4666 78.23 10.4873C78.5792 10.5159 78.7545 10.6219 78.9558 10.9008L79.2792 11.4587C79.3399 11.546 79.4674 11.6544 79.5665 11.6929L82.8529 12.9265L82.8757 12.88C82.8931 12.8435 82.9131 12.8084 82.9361 12.7753C83.016 12.6597 83.1033 12.5621 83.1126 12.5517L83.1134 12.5509C84.2066 11.2571 83.3511 10.9183 83.0565 10.8406L83.0547 10.8389C83.0276 10.8325 83.0024 10.8214 82.9793 10.8067C82.9778 10.8062 82.9761 10.805 82.9745 10.804C82.7821 10.6899 82.8046 10.5268 82.7844 10.3369C82.7821 10.3136 82.8787 10.2964 83.0469 10.2719C83.2598 10.241 83.4404 10.0976 83.5188 9.89784L83.5539 9.80806C83.5949 9.70437 83.543 9.4669 83.4452 9.52001C83.0658 9.72637 82.8663 9.36474 82.7813 9.69982C82.7725 9.73472 82.7249 9.74408 82.6943 9.72511C82.6268 9.6844 82.5272 9.55061 82.4781 9.41658C82.4693 9.39306 82.4296 9.36271 82.3883 9.33515L82.3924 9.33287C82.2776 9.24006 82.1992 9.104 82.1825 8.94999C82.1822 8.94796 82.1817 8.94619 82.1817 8.94443L82.1152 8.35063H82.1157C82.1142 8.34178 82.1134 8.33268 82.1134 8.32332C82.1134 8.21811 82.1984 8.13263 82.3031 8.13263C82.3031 8.13263 82.5428 8.14301 82.7528 8.13415L83.1991 8.11265C83.1991 8.11265 83.3746 8.10077 83.5372 8.04842C83.8493 7.81652 84.2117 7.64986 84.6055 7.56767C84.7875 7.52974 84.9754 7.50976 85.1684 7.50976C85.5629 7.50976 85.9377 7.59296 86.2763 7.74343C86.2768 7.74394 86.2776 7.74419 86.2783 7.7447C86.2789 7.7452 86.2796 7.74545 86.2804 7.74596C86.2811 7.74646 86.2816 7.74646 86.2819 7.74672C86.3618 7.7887 86.47 7.85774 86.4718 7.85901C86.4718 7.85901 86.507 7.88126 86.5672 7.92551C86.6033 7.89896 86.685 7.84155 86.7197 7.82158C87.0492 7.63064 87.4907 7.77808 87.7059 8.15034C87.8885 8.46772 87.8423 8.84984 87.605 9.08933C87.623 9.12019 87.6409 9.15155 87.6584 9.18366C87.7616 9.40368 87.9234 9.87786 87.9867 10.1662C88.1202 10.7617 88.2165 11.3972 88.1397 12.1595C88.0451 13.101 87.7206 13.952 87.5431 14.3394C87.5441 14.3407 87.5446 14.3417 87.5448 14.3425V14.3427C87.5454 14.3435 87.5454 14.3442 87.5454 14.3447C87.535 14.3713 87.5249 14.3981 87.5155 14.4251C87.4993 14.4692 87.4831 14.5134 87.468 14.5579C87.2009 15.3346 87.0565 16.1686 87.0565 17.0363C87.0565 18.4441 87.292 19.8606 87.9502 20.9974C88.064 21.1941 87.9682 21.486 87.7133 21.5302C87.7133 21.5302 87.6708 21.5403 87.5931 21.5563C87.868 23.1877 88.4363 26.9687 88.4494 27.0557C88.4497 27.0567 88.4497 27.0572 88.4497 27.0572C88.453 27.0871 88.4527 27.1166 88.45 27.1455Z" fill="black"/>
</g>
<defs>
<clipPath id="clip0_258_180">
<rect width="99.99" height="33.33" fill="white" transform="translate(0.505005 0.839996)"/>
</clipPath>
</defs>
</svg>
