<svg width="33" height="33" viewBox="0 0 33 33" fill="none" xmlns="http://www.w3.org/2000/svg">
<path d="M32.2594 27.7775C32.8219 28.4025 32.8219 29.34 32.1969 29.9025L30.4469 31.6525C29.8844 32.2775 28.9469 32.2775 28.3219 31.6525L22.1344 25.465C21.8219 25.1525 21.6969 24.7775 21.6969 24.4025V23.34C19.4469 25.09 16.6969 26.09 13.6969 26.09C6.50941 26.09 0.696905 20.2775 0.696905 13.09C0.696905 5.965 6.50941 0.0899963 13.6969 0.0899963C20.8219 0.0899963 26.6969 5.965 26.6969 13.09C26.6969 16.1525 25.6344 18.9025 23.9469 21.09H24.9469C25.3219 21.09 25.6969 21.2775 26.0094 21.5275L32.2594 27.7775ZM13.6969 21.09C18.0719 21.09 21.6969 17.5275 21.6969 13.09C21.6969 8.715 18.0719 5.09 13.6969 5.09C9.25941 5.09 5.69691 8.715 5.69691 13.09C5.69691 17.5275 9.25941 21.09 13.6969 21.09Z" fill="black"/>
</svg>
