<svg width="16" height="16" viewBox="0 0 16 16" fill="none" xmlns="http://www.w3.org/2000/svg">
<path d="M6.73467 1.48547L7.50811 0.712036C7.85967 0.39563 8.38702 0.39563 8.70342 0.712036L15.5589 7.53235C15.8753 7.88391 15.8753 8.41125 15.5589 8.72766L8.70342 15.5831C8.38702 15.8995 7.85967 15.8995 7.50811 15.5831L6.73467 14.8097C6.41827 14.4581 6.41827 13.9308 6.73467 13.5792L10.9886 9.53625H0.898737C0.406549 9.53625 0.054987 9.18469 0.054987 8.6925V7.5675C0.054987 7.11047 0.406549 6.72375 0.898737 6.72375H10.9886L6.73467 2.71594C6.41827 2.36438 6.38311 1.83704 6.73467 1.48547Z" fill="white"/>
</svg>
