<svg width="31" height="32" viewBox="0 0 31 32" fill="none" xmlns="http://www.w3.org/2000/svg">
<path d="M15.4969 3.09C8.30939 3.09 2.49689 8.965 2.49689 16.09C2.49689 23.2775 8.30939 29.09 15.4969 29.09C22.6219 29.09 28.4969 23.2775 28.4969 16.09C28.4969 8.965 22.6219 3.09 15.4969 3.09ZM15.4969 0.589996C23.9969 0.589996 30.9969 7.59 30.9969 16.09C30.9969 24.6525 23.9969 31.59 15.4969 31.59C6.93439 31.59 -0.00310707 24.6525 -0.00310707 16.09C-0.00310707 7.59 6.93439 0.589996 15.4969 0.589996ZM15.4969 4.09C22.1219 4.09 27.4969 9.465 27.4969 16.09C27.4969 22.7775 22.1219 28.09 15.4969 28.09C8.80939 28.09 3.49689 22.7775 3.49689 16.09C3.49689 9.465 8.80939 4.09 15.4969 4.09ZM15.4969 6.84C14.2469 6.84 13.2469 7.9025 13.2469 9.09C13.2469 10.34 14.2469 11.34 15.4969 11.34C16.6844 11.34 17.7469 10.34 17.7469 9.09C17.7469 7.9025 16.6844 6.84 15.4969 6.84ZM22.8094 13.0275C23.3719 12.84 23.6844 12.34 23.5594 11.7775C23.4344 11.2775 22.8719 10.9025 22.3719 11.0275C16.3094 12.465 14.6219 12.465 8.55939 11.0275C8.05939 10.9025 7.49689 11.2775 7.37189 11.7775C7.24689 12.34 7.55939 12.84 8.12189 13.0275C9.87189 13.4025 11.5594 13.7775 13.2469 13.965C13.1844 20.2775 12.4969 21.6525 11.6844 23.715C11.4344 24.2775 11.7469 24.965 12.3094 25.1525C12.8719 25.4025 13.5594 25.09 13.7469 24.5275C14.3094 23.1525 14.8094 21.965 15.1844 19.59H15.7469C16.1219 21.965 16.6219 23.1525 17.1844 24.5275C17.3719 25.09 18.0594 25.4025 18.6219 25.1525C19.1844 24.965 19.4969 24.2775 19.2469 23.715C18.4344 21.6525 17.7469 20.2775 17.6844 13.965C19.3719 13.7775 21.0594 13.4025 22.8094 13.0275Z" fill="black"/>
</svg>
